<svg width="114" height="41" viewBox="0 0 114 41" fill="none" xmlns="http://www.w3.org/2000/svg">
<path fill-rule="evenodd" clip-rule="evenodd" d="M65.6351 0.105948C63.6692 0.307623 62.9873 0.523079 61.7757 1.32474C60.4236 2.21943 59.672 3.68575 59.6733 5.42609C59.6754 8.41014 61.4004 9.82717 66.7349 11.2272C69.1868 11.8707 70.0078 12.4709 70.0078 13.6198C70.0078 15.2931 67.218 15.9816 65.5256 14.7257C65.1435 14.4424 64.7277 13.7737 64.5864 13.2156L64.3328 12.2139L62.5988 12.3779C61.645 12.468 60.4042 12.5425 59.8416 12.5436L58.8181 12.5454L59.0028 13.5299C59.5949 16.6852 61.8072 18.5177 65.4697 18.8872C68.9395 19.2367 71.4073 18.7462 73.4718 17.2958L74.1529 16.8172L74.495 17.7953C75.633 21.05 78.4519 23.6553 81.7277 24.4803L82.9187 24.78L82.169 26.1642C81.1185 28.1035 80.6931 30.8054 81.0625 33.1915C81.5852 36.5683 83.1416 38.7881 85.8908 40.0774C87.2265 40.7039 87.6672 40.7691 90.5463 40.7656C93.2884 40.7624 93.9128 40.6782 95.0778 40.154C96.5059 39.5113 98.2897 37.8568 98.9862 36.5291C99.393 35.7532 99.4033 35.7926 99.4137 38.1854L99.4243 40.6368H106.712H114V38.3842V36.1316H109.632H105.263L105.193 29.175L105.122 22.2184L102.273 22.1431L99.4243 22.0679L99.424 24.6608L99.4237 27.2536L98.8691 26.1329C97.9887 24.3541 95.7764 22.6861 93.7055 22.2396L92.8893 22.0636L95.0908 19.8622C97.5957 17.3573 99.0342 14.7758 99.411 12.1081C100.146 6.90672 96.7752 1.97933 91.6093 0.704348C88.3533 -0.0991726 84.4131 0.847719 80.7125 3.32294C78.6605 4.69545 76.4985 7.02121 75.5545 8.87179L75.0142 9.93079L74.0031 9.01755C72.8776 8.0007 70.8124 7.14205 68.0202 6.53014C65.7734 6.03801 64.9725 5.57662 64.9725 4.77442C64.9725 3.86092 65.4776 3.53496 66.8925 3.53496C67.9028 3.53496 68.3157 3.67382 68.8272 4.18556C69.1849 4.54333 69.4778 5.02036 69.4778 5.24562C69.4778 5.57794 69.8461 5.65506 71.4322 5.65506C72.5071 5.65506 73.758 5.58086 74.2117 5.48996C74.9423 5.34394 75.0181 5.24509 74.875 4.62867C74.0551 1.10213 70.9136 -0.435474 65.6351 0.105948ZM1.36932 9.48106V18.6407H4.15196H6.9346V14.9305V11.2203H7.56136C8.65931 11.2203 9.53147 12.229 11.2358 15.4714L12.8974 18.632L16.1462 18.6365L19.395 18.6407L18.0347 15.9296C16.4446 12.7614 15.6196 11.6049 14.5577 11.0558L13.7873 10.6572L15.1349 9.98565C18.6742 8.22198 18.9357 3.03647 15.5825 1.11485C14.5246 0.508503 14.2657 0.484387 7.9284 0.404353L1.36932 0.321139V9.48106ZM92.6664 1.86378C93.648 2.18206 94.4444 2.74627 95.7382 4.04034C98.0345 6.33694 98.7146 8.02322 98.5858 11.1021C98.5086 12.9517 98.3581 13.5172 97.4581 15.3373C94.301 21.7234 85.934 25.5875 80.484 23.177C78.7983 22.4312 76.5112 20.1767 75.6436 18.4054C75.0128 17.1179 74.9148 16.5959 74.9129 14.5192C74.9108 12.2727 74.9747 11.9907 75.9194 10.0792C79.1587 3.52488 86.5719 -0.111893 92.6664 1.86378ZM11.7048 4.59501C12.2863 5.17645 12.3812 5.94658 11.9667 6.72095C11.6336 7.34346 10.1527 7.77172 8.32592 7.77358L6.9346 7.77517V5.92008V4.06498H9.05471C10.8216 4.06498 11.2631 4.15323 11.7048 4.59501ZM87.8872 6.29109C86.8102 6.76017 85.4191 8.18408 85.2052 9.0361C84.9832 9.92098 85.5683 10.9787 86.538 11.4448C87.1902 11.7583 87.5011 11.7308 89.0935 11.2188C90.0905 10.8981 91.0339 10.7147 91.19 10.8112C91.5695 11.0457 91.5505 11.8328 91.1558 12.2274C90.77 12.6133 89.4489 12.6488 89.2207 12.2793C89.0466 11.9976 87.2337 13.2299 87.2337 13.6301C87.2337 13.9887 88.7257 14.6655 89.5159 14.6655C90.4586 14.6655 92.3564 13.5389 93.0467 12.5698C93.8622 11.4247 93.7713 10.032 92.8193 9.07983C91.8873 8.14804 91.5883 8.13082 89.2907 8.87868C87.4478 9.47841 86.909 9.40553 87.4078 8.62374C87.5851 8.34601 88.0393 8.17163 88.5908 8.17004C89.1253 8.16845 89.8377 7.90503 90.3579 7.51652L91.2293 6.86538L90.6229 6.39869C89.9042 5.84561 88.9923 5.80957 87.8872 6.29109ZM81.9996 10.4558C81.5258 10.7592 81.1383 11.1212 81.1383 11.2604C81.1383 11.3995 81.8735 12.5743 82.7722 13.871C84.1563 15.8681 84.3538 16.2914 84.0646 16.6396C83.6403 17.1508 83.087 17.1683 82.8079 16.6791C82.6391 16.3833 82.407 16.4676 81.6684 17.0922L80.7408 17.8767L81.4845 18.5238C81.9411 18.9211 82.5564 19.1707 83.0793 19.1707C84.6678 19.1707 86.7036 17.2539 86.7036 15.7579C86.7036 15.2599 83.316 9.89024 83.0075 9.89978C82.9269 9.90217 82.4735 10.1523 81.9996 10.4558ZM5.7007 22.0803C4.0388 22.4341 2.54466 23.2954 1.72259 24.373C0.717391 25.6909 0.530822 28.3969 1.35475 29.7106C2.32205 31.253 3.87927 32.0334 8.60127 33.3421C10.3228 33.8191 11.1748 34.5081 11.1748 35.423C11.1748 37.1341 8.03494 37.8942 6.57074 36.5371C6.18223 36.1772 5.79213 35.5213 5.70388 35.0795C5.54753 34.2974 5.50353 34.2765 4.02343 34.2765C3.18732 34.2765 1.94016 34.3536 1.25166 34.448L0 34.6197L0.176764 35.5621C0.58621 37.7442 2.21578 39.7103 4.19543 40.41C4.84789 40.6405 6.39822 40.7672 8.52468 40.7632C11.4647 40.7579 11.9807 40.6866 13.1118 40.1304C13.813 39.7856 14.7631 39.055 15.2237 38.5064L16.0609 37.5094L17.445 38.7743C19.2694 40.4418 21.2591 41.0192 24.6025 40.8512C27.2998 40.7158 28.8592 40.1378 30.2327 38.764C31.0824 37.9143 32.3677 35.583 32.3732 34.8813C32.3754 34.608 28.4815 33.2143 27.7244 33.2175C27.5863 33.218 27.2476 33.7666 26.9723 34.4366C26.1446 36.4486 24.1806 37.1991 22.2012 36.2599C20.7304 35.5618 20.3178 34.5177 20.3178 31.4939C20.3178 29.2246 20.4013 28.7104 20.899 27.9162C21.6039 26.7915 22.2298 26.3833 23.5525 26.1862C25.1585 25.9469 26.4963 26.8421 27.2389 28.6534C27.2895 28.7769 31.8721 27.7132 32.0481 27.5372C32.2752 27.3101 31.2567 25.2865 30.4076 24.2773C30.0191 23.8156 29.0213 23.1051 28.19 22.6986C26.8419 22.039 26.3919 21.9592 24.0282 21.9597C20.6241 21.9608 19.0879 22.4696 17.1548 24.2362C15.8759 25.4052 15.7031 25.491 15.5565 25.0297C15.3005 24.2232 13.4396 22.683 12.3199 22.3509C10.9625 21.9483 7.06817 21.7891 5.7007 22.0803ZM62.9603 22.0941C60.625 22.5571 58.9498 23.6434 57.5127 25.6275L56.7571 26.6706V24.3692V22.0679L53.9082 22.1431L51.0593 22.2184L50.9849 25.4648L50.9104 28.7112H47.871H44.8315V25.3895V22.0679L41.9826 22.1431L39.1337 22.2184L39.064 31.4276L38.9943 40.6368H41.9129H44.8315V36.9266V33.2164H47.8792H50.9268V36.9266V40.6368H53.842H56.7571V38.3553V36.0738L57.6385 37.3615C59.3762 39.9003 62.4149 41.0752 66.6238 40.8356C69.4006 40.6776 71.2955 39.8717 72.7965 38.2101C74.2931 36.5535 74.8384 35.0612 74.9874 32.216C75.2752 26.7114 73.1633 23.4306 68.5608 22.2322C66.8804 21.7946 64.7372 21.7416 62.9603 22.0941ZM10.048 26.192C10.3763 26.5736 10.6448 27.0756 10.6448 27.3077C10.6448 27.6726 10.9358 27.7074 12.7986 27.5637L14.9526 27.3976L14.7891 28.3855C14.6992 28.9291 14.6245 29.5855 14.6229 29.8444C14.6203 30.2722 14.554 30.2809 13.8912 29.9382C13.2061 29.5842 11.4666 29.0353 7.93477 28.0593C5.97764 27.5187 5.56555 26.876 6.54689 25.8947C7.14079 25.3008 7.39811 25.2229 8.34554 25.3501C9.08731 25.4494 9.64781 25.7266 10.048 26.192ZM67.6227 26.8445C68.896 27.7373 69.3264 28.8766 69.3248 31.3505C69.3225 35.1566 67.9942 36.8257 65.1625 36.5819C62.8137 36.3796 61.7924 34.792 61.7924 31.3436C61.7924 28.9246 62.2275 27.6785 63.3522 26.8776C64.5835 26.0009 66.3996 25.9869 67.6227 26.8445ZM91.4863 26.3261C92.4406 26.3261 93.7848 27.8269 94.1338 29.2823C94.5236 30.9071 94.3198 33.6593 93.7244 34.8108C92.4974 37.1832 88.8542 37.2473 87.3314 34.9234C86.6472 33.8787 86.4985 30.1195 87.0815 28.5933C87.3264 27.9522 87.698 27.2857 87.9076 27.1116C88.4652 26.6489 90.2246 26.0637 90.6343 26.2047C90.8283 26.2715 91.2118 26.3261 91.4863 26.3261Z" fill="#ffffff"/>
</svg>
