<svg width="41" height="41" viewBox="0 0 41 41" fill="none" xmlns="http://www.w3.org/2000/svg">
<path d="M20.5 0C9.17888 0 0 9.17888 0 20.5C0 30.106 6.61467 38.1437 15.5322 40.3679C15.4365 40.0912 15.375 39.77 15.375 39.372V35.8682C14.543 35.8682 13.149 35.8682 12.7988 35.8682C11.3963 35.8682 10.1492 35.2651 9.54446 34.1445C8.87308 32.8991 8.75692 30.9943 7.093 29.8292C6.59929 29.4414 6.97512 28.999 7.544 29.0588C8.59463 29.356 9.46587 30.0769 10.2859 31.1463C11.1025 32.2175 11.4868 32.46 13.0124 32.46C13.7521 32.46 14.8591 32.4173 15.9012 32.2533C16.4615 30.8303 17.4301 29.52 18.614 28.9016C11.7875 28.1995 8.52971 24.8033 8.52971 20.1925C8.52971 18.2074 9.37533 16.2873 10.812 14.6695C10.3405 13.0636 9.74775 9.78875 10.9931 8.54167C14.0647 8.54167 15.9217 10.5336 16.3675 11.0717C17.8982 10.5472 19.5792 10.25 21.3456 10.25C23.1155 10.25 24.8033 10.5472 26.3374 11.0751C26.7781 10.5404 28.6368 8.54167 31.7152 8.54167C32.9657 9.79046 32.3661 13.079 31.8895 14.6814C33.3176 16.2958 34.1581 18.2108 34.1581 20.1925C34.1581 24.7999 30.9055 28.1943 24.0892 28.8999C25.965 29.8787 27.3333 32.6292 27.3333 34.7014V39.372C27.3333 39.5496 27.294 39.6778 27.2735 39.8298C35.2617 37.0298 41 29.4448 41 20.5C41 9.17888 31.8211 0 20.5 0Z" fill="#ffffff"/>
</svg>
