<svg width="14" height="15" viewBox="0 0 14 15" fill="none" xmlns="http://www.w3.org/2000/svg">
<g opacity="0.7">
<path d="M10.0295 9.4126L14.0004 13.3873L13.3751 14.0131L9.4043 10.0385L10.0295 9.4126Z" fill="black"/>
<path d="M5.7484 11.5079C2.56467 11.5079 0 8.94079 0 5.75397C0 2.56716 2.56467 0 5.7484 0C8.93213 0 11.4968 2.56716 11.4968 5.75397C11.4968 8.94079 8.93213 11.5079 5.7484 11.5079ZM5.7484 0.885227C3.05108 0.885227 0.88437 3.05403 0.88437 5.75397C0.88437 8.45392 3.05108 10.6227 5.7484 10.6227C8.44573 10.6227 10.6124 8.45392 10.6124 5.75397C10.6124 3.05403 8.44573 0.885227 5.7484 0.885227Z" fill="black"/>
</g>
</svg>
